<svg width="27" height="27" viewBox="0 0 27 27" fill="none" xmlns="http://www.w3.org/2000/svg">
<path d="M9.66375 15.1988L17.3475 19.6762M17.3362 7.32375L9.66375 11.8012M23.625 5.625C23.625 7.48896 22.114 9 20.25 9C18.386 9 16.875 7.48896 16.875 5.625C16.875 3.76104 18.386 2.25 20.25 2.25C22.114 2.25 23.625 3.76104 23.625 5.625ZM10.125 13.5C10.125 15.364 8.61396 16.875 6.75 16.875C4.88604 16.875 3.375 15.364 3.375 13.5C3.375 11.636 4.88604 10.125 6.75 10.125C8.61396 10.125 10.125 11.636 10.125 13.5ZM23.625 21.375C23.625 23.239 22.114 24.75 20.25 24.75C18.386 24.75 16.875 23.239 16.875 21.375C16.875 19.511 18.386 18 20.25 18C22.114 18 23.625 19.511 23.625 21.375Z" stroke="#1E1E1E" stroke-linecap="round" stroke-linejoin="round"/>
</svg>
